<svg width="650" height="450" viewBox="0 0 650 450" fill="none" xmlns="http://www.w3.org/2000/svg">
<g clip-path="url(#clip0_4_9)">
<path d="M502.413 293.821C497.124 284.992 487.963 269.698 472.206 265.098C442.519 256.432 417.01 293.783 414.602 297.412C390.581 333.61 386.862 396.222 411.09 426.666C423.507 442.269 440.382 445.797 447.619 447.31C456.12 449.088 475.897 453.222 492.578 438.334C501.535 430.341 505.832 420.225 508.736 413.202C522.356 380.251 524.123 330.063 502.413 293.821ZM465.538 431.075C448.134 433.373 431.642 412.506 424.867 392.966C421.086 381.848 419.76 369.62 421.035 357.608C422.31 345.596 426.136 334.26 432.097 324.831C434.61 320.939 447.975 300.24 466.442 302.889C484.605 305.494 495.421 328.92 498.979 344.463C507.037 379.656 490.112 427.832 465.538 431.075Z" fill="#2B2C28"/>
<path d="M355.783 435.614H346.631L342.277 390.508H355.785L355.783 435.614Z" fill="#FFB6B6"/>
<path d="M355.538 431.795L345.767 426.716L345.487 426.569L340.091 431.795C337.045 431.795 334.124 433.342 331.97 436.094C329.816 438.846 328.605 442.579 328.605 446.471V446.948H358.114V431.795H355.538Z" fill="#2F2E41"/>
<path d="M470.386 345.663L468.321 357.056L432.947 352.303L435.993 335.488L470.386 345.663Z" fill="#FFB6B6"/>
<path d="M468 341.893L467.469 344.804L467.416 345.103L461.356 356.115L461.172 356.443L463.935 364.336C463.594 366.214 463.547 368.159 463.795 370.06C464.043 371.961 464.582 373.781 465.381 375.416C466.18 377.05 467.223 378.468 468.451 379.587C469.679 380.707 471.068 381.506 472.538 381.94L472.897 382.045L479.556 345.317L468 341.893Z" fill="#2F2E41"/>
<path d="M349.575 193.17L400.043 195.427L400.394 194.774C400.394 194.774 404.699 207.608 404.699 218.609C404.699 222.266 402.708 246.189 403.72 250.715C403.846 251.277 402.98 252.657 403.264 255.278C403.448 256.979 404.465 255.671 404.699 258.028C404.867 259.72 403.077 260.654 403.264 262.612C403.469 264.75 405.931 271.677 406.153 274.056C408.512 299.382 404.672 305.963 404.672 305.963C404.672 305.963 447.835 329.073 450.504 329.774C454.984 330.952 458.009 341.361 455.526 343.525C454.344 344.556 450.409 363.756 450.409 363.756C449.57 363.951 446.943 362.267 448.616 358.287C448.924 357.554 447.087 359.419 446.782 358.542C446.458 357.609 441.859 361.702 441.487 360.667C438.147 351.368 396.367 338.482 391.508 331.865C384.329 322.089 379.783 309.638 378.533 296.328L374.371 247.482L370.551 269.622L367.391 273.613L368.258 282.917L368.108 291.947L360.216 329.533C360.216 329.533 359.033 399.726 360.934 401.955C361.963 403.162 366.332 418.033 358.064 419.373L343.041 417.892C343.041 417.892 341.017 412.442 342.029 410.502C343.041 408.563 342.981 409.092 341.746 405.918C340.511 402.744 341.017 397.365 341.017 397.365C339.049 372.087 338.273 346.68 338.692 321.283C339.445 279.569 344.009 231.648 344.009 230.671C344.047 229.673 343.903 228.677 343.589 227.762V225.129L345.527 215.8L349.575 193.17Z" fill="#E6E6E6"/>
<path d="M404.564 208.254C391.821 211.07 383.276 209.997 378.018 200.003C371.157 188.841 358.681 202.021 348.155 206.921L346.906 205.198L344.783 202.274L346.734 199.45L344.783 194.005L346.411 187.285L348.492 186.799L347.932 181.015L347.057 177.632L349.626 174.029L351.807 165.036L350.235 146.215C348.085 120.418 352.251 94.4033 362.16 71.7585L368.122 64.9196L370.597 62.0778L373.919 54.1572L377.427 54.6798L386.927 56.0823L387.249 57.0724L389.581 64.2596L398.052 75.8859C399.25 77.5302 400.16 79.4817 400.722 81.6105C401.285 83.7392 401.485 85.9965 401.312 88.2321L401.068 91.3673L400.889 93.6225L400.042 104.477L396.591 148.819L396.333 151.175L393.556 176.669C398.069 182.243 398.344 181.027 400.259 190.836C400.474 191.927 402.971 194.356 403.129 195.42C403.351 196.923 404.564 208.254 404.564 208.254Z" fill="#131515"/>
<path d="M378.691 49.4848C387.803 49.4848 395.19 40.0464 395.19 28.4035C395.19 16.7606 387.803 7.32213 378.691 7.32213C369.579 7.32213 362.192 16.7606 362.192 28.4035C362.192 40.0464 369.579 49.4848 378.691 49.4848Z" fill="#FFB6B6"/>
<path d="M395.953 12.5337C394.863 11.0294 393.463 9.94952 391.914 9.41847C390.364 8.88742 388.729 8.9269 387.197 9.53237C386.525 7.07625 385.339 4.90269 383.767 3.24837C382.195 1.59404 380.299 0.522355 378.283 0.149993C376.268 -0.222368 374.212 0.118871 372.338 1.13655C370.464 2.15424 368.844 3.80935 367.655 5.92169C367.112 5.60979 366.514 5.48252 365.921 5.55219C365.327 5.62186 364.758 5.88613 364.268 6.31938C363.295 7.20329 362.512 8.38491 361.989 9.75608C360.64 13.0305 360.011 16.7109 360.169 20.4057C360.328 24.1004 361.267 27.6712 362.888 30.7379C362.242 29.072 364.058 31.941 365.827 31.1894C367.347 30.6804 373.59 25.5654 375.148 25.8241C376.706 26.0826 377.211 24.4774 378.735 23.9906C380.228 23.3806 384.038 31.2652 384.802 36.4824C384.947 37.4711 385.298 38.6995 386.085 38.722C387.054 38.7498 387.345 36.9761 388.162 36.31C388.548 36.0596 388.994 36.0101 389.407 36.1719C389.821 36.3338 390.169 36.6943 390.378 37.1776C390.569 37.6743 390.665 38.2222 390.656 38.7755C390.648 39.3289 390.537 39.8718 390.331 40.359C389.914 41.3275 389.376 42.2034 388.74 42.9529L389.163 43.2501C389.58 43.6317 390.088 43.8161 390.6 43.7717C391.112 43.7273 391.595 43.4569 391.968 43.0068C393.544 43.9152 397.83 38.7924 397.261 35.693C398.457 31.894 399.112 27.8517 399.193 23.7578C399.259 19.6283 398.102 15.6194 395.953 12.5337Z" fill="#2F2E41"/>
<path d="M268.793 83.5701C269.403 84.3033 270.132 84.8565 270.928 85.1907C271.724 85.525 272.568 85.6321 273.4 85.5047C274.231 85.3773 275.031 85.0183 275.743 84.4532C276.455 83.888 277.061 83.1303 277.518 82.2336L312.786 93.0176L309.265 80.2648L275.533 71.7525C274.303 70.8701 272.862 70.5948 271.484 70.9788C270.105 71.3628 268.885 72.3795 268.055 73.8362C267.224 75.2929 266.84 77.0883 266.976 78.8823C267.112 80.6764 267.758 82.3443 268.793 83.5701Z" fill="#FFB8B8"/>
<path d="M374.159 75.7257L371.334 73.843L358.446 73.5841L357.975 73.578L357.949 73.5809L348.068 73.3878L300.358 72.4327L298.439 74.5732L295.489 72.3352L292.146 70.17L289.078 72.2069L286.453 72.1543L286.053 74.404L286.05 74.412L286.038 74.4771L284.261 84.2918L284.258 84.2999L284.28 86.6148L287.366 90.8649L289.003 92.4677L292.401 94.3875L294.753 90.8076L297.511 94.4689L308.821 97.1291C327.727 103.784 345.136 106.988 358.496 100.836L360.175 100.736L373.437 99.9295C375.25 99.8219 376.998 99.0306 378.459 97.6555C379.921 96.2804 381.031 94.383 381.649 92.2028L381.652 92.1948C382.071 90.7139 382.251 89.1397 382.18 87.5676C382.121 86.1227 381.849 84.7051 381.377 83.3897C380.531 80.9966 379.085 79.032 377.267 77.8066L374.159 75.7257Z" fill="#131515"/>
<path d="M570.876 421.833C571.513 421.863 572.142 421.642 572.678 421.199C573.214 420.757 573.63 420.115 573.87 419.36C574.111 418.605 574.164 417.775 574.022 416.98C573.88 416.186 573.551 415.466 573.079 414.918C572.997 414.521 572.939 414.236 572.858 413.838C573.453 411.852 574.498 410.138 575.86 408.916C577.222 407.694 578.839 407.02 580.503 406.98C582.167 406.939 583.803 407.535 585.201 408.69C586.598 409.845 587.694 411.507 588.347 413.463C592.115 424.442 596.971 435.796 594.689 447.967C610.043 405.34 604.32 352.618 580.891 316.609C574.456 312.181 569.208 304.239 567.788 294.96C570.966 296.294 574.891 292.953 572.478 288.718C571.433 287.101 570.378 285.496 569.334 283.879C581.246 267.356 595.777 292.92 582.695 315.184C587.08 322.074 590.89 329.53 594.062 337.431C593.28 329.009 594.074 320.471 596.379 312.518C598.72 305.104 603.164 298.83 607.071 292.397C611.821 284.56 621.744 288.028 622.465 297.892C618.041 299.81 617.526 308.007 622.61 309.066C621.417 327.446 612.153 344.437 599.281 352.649C604.184 369.713 606.185 387.916 605.15 406.045C607.275 384.846 625.022 379.492 637.391 370.926C638.178 370.268 639.097 369.917 640.037 369.915C640.977 369.913 641.897 370.261 642.685 370.916C643.473 371.571 644.095 372.505 644.475 373.603C644.854 374.702 644.975 375.918 644.823 377.104C643.114 378.016 641.48 379.143 639.945 380.468C639.226 381.099 638.677 381.998 638.374 383.043C638.071 384.087 638.028 385.226 638.251 386.304C638.474 387.381 638.952 388.344 639.62 389.06C640.289 389.776 641.114 390.211 641.983 390.304C635.864 410.197 619.762 423.701 603.122 423.828C601.589 432.726 599.337 441.397 596.401 449.7L571.705 450C571.614 449.651 571.531 449.29 571.449 448.94C573.736 449.096 576.03 448.893 578.279 448.336C572.163 439.261 567.451 434.65 570.875 421.834L570.876 421.833Z" fill="#E6E6E6"/>
<path d="M74.312 332.626C73.6747 332.656 73.0456 332.434 72.5101 331.992C71.9745 331.55 71.5584 330.907 71.318 330.153C71.0776 329.398 71.0245 328.567 71.1661 327.773C71.3076 326.978 71.6369 326.258 72.1093 325.711C72.1907 325.314 72.2491 325.028 72.3304 324.631C71.7356 322.645 70.69 320.931 69.3278 319.709C67.9656 318.487 66.3489 317.812 64.6848 317.772C63.0207 317.732 61.385 318.327 59.9876 319.483C58.5901 320.638 57.4945 322.3 56.8411 324.256C53.073 335.235 48.2175 346.589 50.4995 358.76C35.145 316.133 40.8677 263.411 64.2973 227.402C70.7323 222.974 75.9805 215.032 77.4005 205.753C74.2221 207.086 70.2967 203.745 72.7105 199.51C73.7552 197.893 74.8097 196.289 75.8543 194.672C63.9417 178.149 49.4108 203.713 62.4927 225.977C58.1077 232.866 54.2982 240.322 51.1266 248.224C51.9082 239.802 51.1139 231.264 48.809 223.311C46.4682 215.897 42.0239 209.622 38.1169 203.19C33.3667 195.353 23.444 198.821 22.7234 208.685C27.1469 210.602 27.6623 218.799 22.5781 219.858C23.7707 238.239 33.0347 255.23 45.9072 263.441C41.0038 280.505 39.0031 298.708 40.0384 316.838C37.9134 295.639 20.1656 290.285 7.79669 281.719C7.01029 281.061 6.09103 280.71 5.15103 280.708C4.21104 280.706 3.29094 281.054 2.50299 281.709C1.71505 282.364 1.0933 283.297 0.713604 284.396C0.333907 285.495 0.212683 286.711 0.364699 287.896C2.07387 288.809 3.70789 289.936 5.24269 291.261C5.96179 291.891 6.51066 292.79 6.81406 293.835C7.11747 294.88 7.16056 296.019 6.93743 297.096C6.71429 298.174 6.23586 299.136 5.56771 299.853C4.89955 300.569 4.07438 301.003 3.20531 301.097C9.32397 320.989 25.4258 334.493 42.0658 334.621C43.5987 343.519 45.8511 352.189 48.7868 360.492L73.4832 360.793C73.5743 360.443 73.6567 360.082 73.739 359.732C71.4517 359.888 69.158 359.686 66.9093 359.129C73.0254 350.053 77.7374 345.442 74.3127 332.627L74.312 332.626Z" fill="#E6E6E6"/>
<path d="M68.3016 330.723C114.702 321.128 143.36 419.012 173.288 412.852C228.135 401.562 205.401 50.364 248.277 47.3774C284.827 44.8315 331.713 199.809 370.435 292.786C390.788 341.658 401.852 376.418 401.852 376.418C401.852 376.418 384.916 481.424 360.835 439.978C326.433 380.771 300.567 173.427 281.487 182.89C252.273 197.38 285.224 375.654 215.068 430.647C153.789 478.681 34.0923 410.434 34.0205 367.681C33.9929 351.262 51.6022 334.176 68.3016 330.723Z" fill="#339989"/>
<path d="M291.274 310.698C281.818 313.462 269.401 322.009 270.074 329.884C270.797 338.326 286.572 346.148 299.223 341.171C309.602 337.087 319.047 323.929 316.889 316.341C314.662 308.508 300.468 308.01 291.274 310.698Z" fill="#339989"/>
<path d="M539.526 282.366C542.578 275.763 546.943 265.976 543.741 259.041C539.37 249.572 525.814 236.947 517.38 249.262C510.969 258.622 512.408 262.364 512.494 276.896C512.728 316.565 495.152 401.283 513.522 441.597C516.961 449.144 535.968 447.647 543.498 448.586C551.845 449.626 560.902 439.257 560.386 427.257C559.924 416.509 552.02 413.379 544.122 406.31C515.718 380.886 523.721 316.56 539.526 282.366Z" fill="#2B2C28"/>
<path d="M180.54 55.1491C180.348 58.093 180.162 61.0368 179.982 63.9807C179.844 67.4286 179.467 70.8542 178.856 74.2172C178.716 75.1504 178.402 76.0265 177.94 76.7708C177.119 77.9639 178.638 84.9444 177.512 85.6135C176.369 86.3092 175.141 86.7504 173.882 86.9181C173.829 86.4275 173.759 85.9368 173.681 85.4573C173.672 85.4016 173.663 85.357 173.655 85.3012C173.298 83.1247 172.639 81.0476 171.709 79.1682C171.928 81.3951 171.734 83.6566 171.141 85.7696C171.045 86.1153 170.932 86.4609 170.81 86.8066C165.861 85.8699 161.576 81.5991 158.199 81.6437C156.147 72.8529 154.702 63.8495 153.879 54.7366C153.661 52.3057 153.539 49.6071 154.708 47.678C155.747 45.9608 157.518 45.3363 159.177 44.8791C164.594 43.3836 170.13 42.7062 175.671 42.8608L166.08 40.0062C168.773 39.812 171.474 40.1391 174.091 40.9763C176.666 41.9688 179.1 44.1432 180.095 47.3435C180.855 49.7855 180.697 52.5287 180.54 55.1491Z" fill="#2F2E41"/>
<path d="M126.523 425.82H117.29L112.898 380.319L126.525 380.32L126.523 425.82Z" fill="#FFB6B6"/>
<path d="M98.6571 443.226C98.6616 444.548 99.0739 445.813 99.8045 446.749C100.535 447.684 101.525 448.213 102.559 448.222H119.939L120.477 446.796L122.936 440.314L123.888 446.796L124.098 448.222H130.654L130.56 446.786L128.812 420.002L126.525 419.823L116.646 419.075L114.218 418.885V426.883C112.377 429.386 97.9235 438.849 98.6571 443.226Z" fill="#2F2E41"/>
<path d="M234.684 412.98L226.654 418.802L205.26 381.996L217.112 373.405L234.684 412.98Z" fill="#FFB6B6"/>
<path d="M217.17 445.689C217.681 446.84 218.528 447.685 219.526 448.038C220.524 448.392 221.591 448.224 222.492 447.574L223.405 446.916H223.413L237.609 436.615L237.156 427.85L241.23 433.992L244.234 431.809L246.927 429.854L244.546 425.407L234.425 406.471L232.364 407.767L223.475 413.341L221.306 414.707L224.389 421.658C223.756 425.008 214.844 442.339 217.17 445.689Z" fill="#2F2E41"/>
<path d="M172.34 202.468C183.154 202.964 181.493 235.7 184.869 264.173C187.881 289.575 196.69 311.027 193.744 311.939L222.904 381.377C211.502 394.909 198.122 403.883 181.399 405.149C163.252 383.842 158.275 334.809 154.109 284.073L149.56 328.629L155.625 399.337L128.796 407.627L110.24 405.934C94.5119 324.874 124.268 233.202 137.078 198.372L172.34 202.468Z" fill="#2B2C28"/>
<path d="M183.812 185.531L188.724 166.701L192.233 160.424L193.637 142.491C193.637 94.0703 185.184 102.133 185.184 102.133L174.158 85.1035L161.614 84.6026L151.701 84.2068L143.46 101.692C139.829 103.33 136.596 106.153 134.084 109.882C131.572 113.61 129.867 118.114 129.139 122.946L126.858 138.088L135.39 171.184L135.013 168.725C130.997 178.198 132.019 179.623 135.344 186.736L135.51 189.304C135.663 191.615 136.38 193.805 137.56 195.568C138.739 197.33 140.321 198.576 142.083 199.129C177.615 210.443 181.308 230.236 185.876 222.064C186.937 220.165 182.433 197.504 183.969 197.7C188.178 198.238 183.812 185.531 183.812 185.531Z" fill="#7DE2D1"/>
<path d="M208.127 255.614C207.403 254.763 206.833 253.721 206.456 252.561C206.078 251.401 205.903 250.15 205.941 248.894C205.979 247.639 206.23 246.409 206.677 245.29C207.124 244.171 207.755 243.189 208.528 242.412L199.725 200.665L208.163 194.714L218.336 244.396C219.262 246.156 219.651 248.288 219.429 250.39C219.207 252.492 218.389 254.416 217.131 255.799C215.872 257.182 214.261 257.926 212.601 257.892C210.942 257.858 209.35 257.047 208.127 255.614H208.127Z" fill="#FFB6B6"/>
<path d="M183.885 100.915C183.885 100.915 199.553 107.012 200.932 117.655C202.31 128.299 204.718 137.689 204.096 142.043C203.473 146.397 211.246 175.537 209.731 178.889C208.216 182.241 212.291 182.967 210.884 188.461C209.477 193.956 208.692 195.096 209.585 196.098C210.477 197.101 214.327 218.889 214.327 218.889L202.589 223.247L180.969 154.797L183.885 100.915Z" fill="#7DE2D1"/>
<path d="M122.162 255.614C122.885 254.763 123.455 253.721 123.833 252.561C124.21 251.401 124.386 250.15 124.348 248.894C124.309 247.639 124.058 246.409 123.612 245.29C123.165 244.171 122.533 243.189 121.76 242.412L130.564 200.665L122.125 194.714L111.953 244.396C111.026 246.156 110.637 248.289 110.859 250.39C111.082 252.492 111.899 254.416 113.158 255.799C114.416 257.182 116.028 257.926 117.687 257.892C119.347 257.858 120.939 257.047 122.162 255.614L122.162 255.614Z" fill="#FFB6B6"/>
<path d="M146.403 100.915C146.403 100.915 130.735 107.012 129.357 117.655C127.978 128.299 125.57 137.689 126.193 142.043C126.815 146.397 119.043 175.537 120.558 178.889C122.073 182.241 117.998 182.967 119.405 188.461C120.812 193.956 121.596 195.096 120.704 196.098C119.811 197.101 115.962 218.889 115.962 218.889L127.7 223.247L149.32 154.797L146.403 100.915Z" fill="#7DE2D1"/>
<path d="M159.232 81.8637C170.019 81.8637 178.764 70.6907 178.764 56.908C178.764 43.1254 170.019 31.9523 159.232 31.9523C148.446 31.9523 139.701 43.1254 139.701 56.908C139.701 70.6907 148.446 81.8637 159.232 81.8637Z" fill="#FFB6B6"/>
<path d="M179.048 96.4887C171.682 88.1199 184.241 64.2162 174.431 48.2635L173.253 47.1367C172.365 49.2958 170.923 50.999 169.169 51.9605C168.803 49.7852 168.188 47.6906 167.345 45.7439C167.557 48.1553 167.388 50.5964 166.848 52.9227C166.298 53.0113 165.905 52.91 165.765 52.5935C165.94 54.5306 161.306 55.4928 162.275 52.4795C162.282 52.4492 162.29 52.4196 162.301 52.3909C161.105 55.4674 158.644 56.8982 156.506 58.6074C154.368 60.3039 152.195 63.14 152.404 66.6597C152.579 69.5084 154.281 71.6354 155.991 73.0534C157.702 74.4841 159.622 75.5983 160.861 77.8139C162.947 81.5362 162.458 86.9931 161.402 91.5257C161.191 92.2495 160.845 92.8971 160.396 93.4131C159.946 93.9291 159.405 94.298 158.819 94.4882C158.47 92.0474 157.813 89.6953 156.873 87.5248C157.092 90.0464 156.899 92.5989 156.305 95.0201C155.033 95.0914 153.763 94.8319 152.572 94.2573C151.381 93.6828 150.294 92.8051 149.376 91.6776L150.694 99.1474C148.573 98.5778 146.435 99.2234 144.279 99.7172C144.223 98.8719 144.133 98.031 144.009 97.1977C143.67 94.6929 143.003 92.2789 142.036 90.057C142.306 93.1446 141.955 96.2692 141.015 99.1349C140.911 99.464 140.797 99.7932 140.675 100.11C137.359 99.8058 134.051 97.337 134.68 90.9179C134.956 88.8581 135.628 86.9181 136.634 85.2712C138.345 82.2072 129.627 78.9281 130.159 75.2311C130.953 69.749 138.903 64.8998 138.275 59.367C137.717 54.3533 137.826 43.0358 139.986 39.135C143.106 33.4996 139.645 21.8415 161.821 28.4619C170.071 30.9248 172.93 20.5845 185.366 52.1607C187.499 57.5743 179.746 55.7133 184.302 67.3181C188.857 78.923 175.81 88.1199 179.048 96.4887Z" fill="#2F2E41"/>
<path d="M1.41939e-05 448.578C-0.0023683 447.942 0.644071 447.425 1.44396 447.423H648.547C649.35 447.423 650 447.94 650 448.578C650 449.217 649.35 449.734 648.547 449.734H1.4526C0.652722 449.736 0.00237924 449.222 1.41939e-05 448.585V448.578Z" fill="#CCCCCC"/>
<path d="M332.462 210.684C333.253 210.333 333.975 209.765 334.576 209.019C335.177 208.273 335.643 207.367 335.94 206.367C336.238 205.366 336.36 204.294 336.298 203.226C336.236 202.159 335.992 201.121 335.583 200.187L359.419 165.269L348.944 163.339L327.395 197.573C326.212 198.556 325.353 200.059 324.98 201.797C324.607 203.535 324.746 205.388 325.371 207.004C325.995 208.62 327.062 209.888 328.369 210.566C329.676 211.244 331.132 211.286 332.462 210.684V210.684Z" fill="#FFB8B8"/>
<path d="M342.895 191.255L346.281 186.481L349.549 186.122L349.771 185.767L350.625 184.374L350.952 180.497L353.462 179.745L359.056 170.615L359.91 168.798L383.392 133.743L388.182 123.551L388.935 121.479L391.281 115.031L390.971 98.7711C391.485 97.3668 391.774 95.8462 391.824 94.2975C391.873 92.7489 391.68 91.2033 391.257 89.7506C391.122 89.2798 390.964 88.8205 390.783 88.3753L390.651 88.0592C390.308 87.2805 389.896 86.5543 389.425 85.8943L389.417 85.8788C388.586 84.7157 387.576 83.7843 386.451 83.1431C385.573 82.6314 384.638 82.3003 383.68 82.1621C381.468 81.8488 379.241 82.564 377.408 84.1766L374.527 86.7225L371.911 89.0513L365.923 103.135L365.531 104.053L365.516 104.076L347.078 147.42L341.52 160.489L340.673 162.474L340.595 168.281L337.921 168.927L334.765 171.947L334.448 177.088L332.963 185.379L332.737 185.846L334.12 186.894L334.254 186.991L334.506 187.275L338.026 191.136L340.161 193.484L340.232 193.557L340.787 194.225L342.895 191.255Z" fill="#131515"/>
<path d="M140.461 42.1029C140.505 42.1241 140.543 42.1453 140.587 42.1665C140.671 42.2137 140.757 42.2538 140.845 42.2865C141.406 42.5494 141.99 42.7209 142.584 42.797C142.837 42.832 143.092 42.8492 143.347 42.8485C143.673 42.85 144 42.8229 144.324 42.7675C144.684 42.7111 145.04 42.6185 145.389 42.4905C145.554 42.4338 145.718 42.3665 145.878 42.2887C146.969 41.7935 147.955 40.9818 148.759 39.9173C149.563 38.8528 150.162 37.5646 150.511 36.1538V36.1468C150.548 36.0089 150.579 35.8686 150.605 35.7264C150.768 34.9371 150.851 34.1243 150.851 33.308V33.2939C150.855 31.3032 150.37 29.3613 149.463 27.7427C148.916 26.7521 148.284 26.5866 148.639 25.4539C149.769 21.8409 145.144 18.8874 142.414 20.4761C142.315 20.4641 142.216 20.4591 142.118 20.4611C140.279 20.4552 139.597 23.9241 138.501 25.877L138.533 25.8902C138.81 26.0143 139.051 26.2462 139.22 26.5534C139.389 26.8606 139.479 27.2277 139.477 27.6034C139.475 27.9792 139.382 28.3447 139.209 28.649C139.036 28.9532 138.794 29.181 138.515 29.3004C137.785 29.6041 137.048 29.8725 136.303 30.1054C133.846 33.8126 136.663 44.6585 140.461 42.1029Z" fill="#2F2E41"/>
<path d="M149.248 26.8056C149.348 30.1373 148.679 33.4331 147.326 36.2834C145.972 39.1337 143.992 41.4127 141.633 42.8372C140.675 43.3918 139.841 41.5766 140.805 41.018C142.913 39.7756 144.685 37.7607 145.895 35.2292C147.105 32.6977 147.699 29.7639 147.601 26.8002C147.546 25.4473 149.193 25.4567 149.248 26.8056V26.8056Z" fill="#7DE2D1"/>
</g>
<defs>
<clipPath id="clip0_4_9">
<rect width="650" height="450" fill="white"/>
</clipPath>
</defs>
</svg>
